<svg width="40" height="40" viewBox="0 0 40 40" fill="none" xmlns="http://www.w3.org/2000/svg">
<path d="M30.5215 9.47851C34.9641 13.9211 37.752 19.132 38.694 23.9384C39.6369 28.75 38.7224 33.0715 35.8969 35.8969C33.0715 38.7224 28.75 39.637 23.9384 38.694C19.132 37.752 13.9211 34.9641 9.4785 30.5215C5.03587 26.0788 2.24796 20.868 1.30601 16.0616C0.363016 11.2499 1.27759 6.92852 4.10305 4.10306C6.92851 1.2776 11.2499 0.363024 16.0616 1.30601C20.868 2.24797 26.0788 5.03588 30.5215 9.47851Z" stroke="#0F110F" stroke-width="1.42857"/>
<path d="M30.5215 30.5215C26.0788 34.9641 20.868 37.752 16.0616 38.694C11.2499 39.637 6.9285 38.7224 4.10305 35.8969C1.27759 33.0715 0.363012 28.7501 1.306 23.9384C2.24796 19.132 5.03586 13.9212 9.47849 9.47853C13.9211 5.0359 19.132 2.24799 23.9384 1.30604C28.75 0.363046 33.0715 1.27762 35.8969 4.10308C38.7224 6.92854 39.6369 11.25 38.694 16.0616C37.752 20.868 34.9641 26.0789 30.5215 30.5215Z" stroke="#0F110F" stroke-width="1.42857"/>
<circle cx="20" cy="20" r="5.71429" fill="#0F110F"/>
</svg>
