<svg width="181" height="40" viewBox="0 0 181 40" fill="none" xmlns="http://www.w3.org/2000/svg">
<path d="M30.5215 9.47847C34.9641 13.9211 37.752 19.132 38.694 23.9384C39.6369 28.75 38.7224 33.0714 35.8969 35.8969C33.0715 38.7224 28.75 39.6369 23.9384 38.6939C19.132 37.752 13.9211 34.9641 9.4785 30.5214C5.03587 26.0788 2.24796 20.868 1.30601 16.0616C0.363016 11.2499 1.27759 6.92849 4.10305 4.10303C6.92851 1.27757 11.2499 0.362993 16.0616 1.30598C20.868 2.24794 26.0788 5.03585 30.5215 9.47847Z" stroke="white" stroke-width="1.42857"/>
<path d="M30.5215 30.5213C26.0788 34.964 20.868 37.7519 16.0616 38.6938C11.2499 39.6368 6.9285 38.7223 4.10305 35.8968C1.27759 33.0713 0.363012 28.7499 1.306 23.9383C2.24796 19.1319 5.03586 13.921 9.47849 9.47838C13.9211 5.03575 19.132 2.24784 23.9384 1.30588C28.75 0.362894 33.0715 1.27747 35.8969 4.10293C38.7224 6.92839 39.6369 11.2498 38.694 16.0615C37.752 20.8679 34.9641 26.0787 30.5215 30.5213Z" stroke="white" stroke-width="1.42857"/>
<circle cx="20" cy="19.9999" r="5.71429" fill="white"/>
<path d="M55.84 31.5L65.92 9.1H70.016L80.128 31.5H75.776L67.104 11.308H68.768L60.128 31.5H55.84ZM60.48 26.316L61.6 23.052H73.696L74.816 26.316H60.48ZM90.1805 37.932C88.6018 37.932 87.0552 37.7187 85.5405 37.292C84.0472 36.8867 82.8205 36.2893 81.8605 35.5L83.6525 32.492C84.3992 33.1107 85.3378 33.6013 86.4685 33.964C87.6205 34.348 88.7832 34.54 89.9565 34.54C91.8338 34.54 93.2098 34.1027 94.0845 33.228C94.9592 32.3747 95.3965 31.084 95.3965 29.356V26.316L95.7165 22.444L95.5885 18.572V14.412H99.3965V28.908C99.3965 32.0013 98.6072 34.2733 97.0285 35.724C95.4498 37.196 93.1672 37.932 90.1805 37.932ZM89.6685 30.732C88.0472 30.732 86.5752 30.3907 85.2525 29.708C83.9512 29.004 82.9165 28.0333 82.1485 26.796C81.4018 25.5587 81.0285 24.108 81.0285 22.444C81.0285 20.8013 81.4018 19.3613 82.1485 18.124C82.9165 16.8867 83.9512 15.9267 85.2525 15.244C86.5752 14.5613 88.0472 14.22 89.6685 14.22C91.1192 14.22 92.4205 14.508 93.5725 15.084C94.7245 15.66 95.6418 16.556 96.3245 17.772C97.0285 18.988 97.3805 20.5453 97.3805 22.444C97.3805 24.3427 97.0285 25.9107 96.3245 27.148C95.6418 28.364 94.7245 29.2707 93.5725 29.868C92.4205 30.444 91.1192 30.732 89.6685 30.732ZM90.2765 27.34C91.2792 27.34 92.1752 27.1373 92.9645 26.732C93.7538 26.3053 94.3618 25.7293 94.7885 25.004C95.2365 24.2573 95.4605 23.404 95.4605 22.444C95.4605 21.484 95.2365 20.6413 94.7885 19.916C94.3618 19.1693 93.7538 18.604 92.9645 18.22C92.1752 17.8147 91.2792 17.612 90.2765 17.612C89.2738 17.612 88.3672 17.8147 87.5565 18.22C86.7672 18.604 86.1485 19.1693 85.7005 19.916C85.2738 20.6413 85.0605 21.484 85.0605 22.444C85.0605 23.404 85.2738 24.2573 85.7005 25.004C86.1485 25.7293 86.7672 26.3053 87.5565 26.732C88.3672 27.1373 89.2738 27.34 90.2765 27.34ZM112.687 31.724C110.789 31.724 109.125 31.3507 107.695 30.604C106.287 29.836 105.189 28.7907 104.399 27.468C103.631 26.1453 103.247 24.6413 103.247 22.956C103.247 21.2493 103.621 19.7453 104.367 18.444C105.135 17.1213 106.181 16.0867 107.503 15.34C108.847 14.5933 110.373 14.22 112.079 14.22C113.743 14.22 115.226 14.5827 116.527 15.308C117.829 16.0333 118.853 17.0573 119.599 18.38C120.346 19.7027 120.719 21.26 120.719 23.052C120.719 23.2227 120.709 23.4147 120.687 23.628C120.687 23.8413 120.677 24.044 120.655 24.236H106.415V21.58H118.543L116.975 22.412C116.997 21.4307 116.794 20.5667 116.367 19.82C115.941 19.0733 115.354 18.4867 114.607 18.06C113.882 17.6333 113.039 17.42 112.079 17.42C111.098 17.42 110.234 17.6333 109.487 18.06C108.762 18.4867 108.186 19.084 107.759 19.852C107.354 20.5987 107.151 21.484 107.151 22.508V23.148C107.151 24.172 107.386 25.0787 107.855 25.868C108.325 26.6573 108.986 27.2653 109.839 27.692C110.693 28.1187 111.674 28.332 112.783 28.332C113.743 28.332 114.607 28.1827 115.375 27.884C116.143 27.5853 116.826 27.116 117.423 26.476L119.567 28.94C118.799 29.836 117.829 30.5293 116.655 31.02C115.503 31.4893 114.181 31.724 112.687 31.724ZM134.258 14.22C135.623 14.22 136.839 14.4867 137.906 15.02C138.994 15.5533 139.847 16.3747 140.466 17.484C141.084 18.572 141.394 19.98 141.394 21.708V31.5H137.394V22.22C137.394 20.7053 137.031 19.5747 136.306 18.828C135.602 18.0813 134.61 17.708 133.33 17.708C132.391 17.708 131.559 17.9 130.834 18.284C130.108 18.668 129.543 19.244 129.138 20.012C128.754 20.7587 128.562 21.708 128.562 22.86V31.5H124.562V14.412H128.37V19.02L127.698 17.612C128.295 16.524 129.159 15.692 130.29 15.116C131.442 14.5187 132.764 14.22 134.258 14.22ZM154.339 31.724C152.547 31.724 150.947 31.3507 149.539 30.604C148.152 29.836 147.064 28.7907 146.275 27.468C145.486 26.1453 145.091 24.6413 145.091 22.956C145.091 21.2493 145.486 19.7453 146.275 18.444C147.064 17.1213 148.152 16.0867 149.539 15.34C150.947 14.5933 152.547 14.22 154.339 14.22C156.003 14.22 157.464 14.5613 158.723 15.244C160.003 15.9053 160.974 16.8867 161.635 18.188L158.563 19.98C158.051 19.1693 157.422 18.572 156.675 18.188C155.95 17.804 155.16 17.612 154.307 17.612C153.326 17.612 152.44 17.8253 151.651 18.252C150.862 18.6787 150.243 19.2973 149.795 20.108C149.347 20.8973 149.123 21.8467 149.123 22.956C149.123 24.0653 149.347 25.0253 149.795 25.836C150.243 26.6253 150.862 27.2333 151.651 27.66C152.44 28.0867 153.326 28.3 154.307 28.3C155.16 28.3 155.95 28.108 156.675 27.724C157.422 27.34 158.051 26.7427 158.563 25.932L161.635 27.724C160.974 29.004 160.003 29.996 158.723 30.7C157.464 31.3827 156.003 31.724 154.339 31.724ZM166.282 37.932C165.45 37.932 164.618 37.7933 163.786 37.516C162.954 37.2387 162.261 36.8547 161.706 36.364L163.306 33.42C163.711 33.7827 164.17 34.0707 164.682 34.284C165.194 34.4973 165.717 34.604 166.25 34.604C166.975 34.604 167.562 34.4227 168.01 34.06C168.458 33.6973 168.874 33.0893 169.258 32.236L170.25 29.996L170.57 29.516L177.034 14.412H180.874L172.874 32.876C172.341 34.156 171.743 35.1693 171.082 35.916C170.442 36.6627 169.717 37.1853 168.906 37.484C168.117 37.7827 167.242 37.932 166.282 37.932ZM169.802 32.108L162.09 14.412H166.25L172.522 29.164L169.802 32.108Z" fill="white"/>
</svg>
